<?xml version="1.0" encoding="UTF-8"?>
<svg id="Layer_1" data-name="Layer 1" xmlns="http://www.w3.org/2000/svg" viewBox="0 0 483.18 262.6">
  <defs>
    <style>
      .cls-1 {
        fill: #9cb06a;
      }
    </style>
  </defs>
  <path d="M35.19,28.04C15.83,28.21,0,44.87,0,64.23v44.57c0,5.37,4.35,9.72,9.72,9.72h0c5.37,0,9.72-4.35,9.72-9.72v-13.58c5.89,2.99,12.71,4.41,19.93,3.65,16.88-1.79,30.29-15.64,31.56-32.56,1.58-20.97-15.06-38.45-35.73-38.26Zm1.58,53.63c-11.24,1.11-20.61-8.26-19.5-19.5,.82-8.32,7.55-15.05,15.87-15.87,11.24-1.11,20.61,8.26,19.5,19.5-.82,8.32-7.55,15.05-15.87,15.87Z"/>
  <rect x="82.26" y="0" width="19.8" height="100.44" rx="9.9" ry="9.9"/>
  <path d="M263.22,63.54c0-19.55-15.85-35.4-35.4-35.4h0c-19.55,0-35.4,15.85-35.4,35.4v28.02c0,4.9,3.98,8.88,8.88,8.88h.24c4.9,0,8.88-3.98,8.88-8.88v-25.74c0-9.68,7.84-17.52,17.52-17.52h0c9.68,0,17.52,7.84,17.52,17.52v25.74c0,4.9,3.98,8.88,8.88,8.88h0c4.9,0,8.88-3.98,8.88-8.88v-28.02Z"/>
  <rect x="329.62" y="29.7" width="19.8" height="70.74" rx="9.9" ry="9.9"/>
  <g>
    <rect class="cls-1" x="144.6" y="36.74" width="3" height="81.78"/>
    <path class="cls-1" d="M146.1,102.08h0v-3c1.16-.03,28.54-.23,28.99-25.83,.54-30.92-23.66-53.49-28.52-57.7l-.97-.82-.98,.83c-4.84,4.2-29.05,26.77-28.51,57.69,.45,25.49,27.58,25.83,28.96,25.83h.02v3s0,0,0,0c-.46,0-31.48-.28-31.98-28.78-.56-32.25,24.52-55.65,29.56-60.02l2.93-2.48,2.92,2.47c5.05,4.38,30.14,27.78,29.57,60.03-.5,28.5-31.52,28.78-31.98,28.78Z"/>
    <polygon class="cls-1" points="146.04 58.62 131.13 45.49 133.11 43.23 146.16 54.73 160 43.9 161.84 46.26 146.04 58.62"/>
    <polygon class="cls-1" points="145.99 72.4 129.42 57.8 131.4 55.55 146.11 68.51 161.71 56.3 163.56 58.66 145.99 72.4"/>
    <polygon class="cls-1" points="145.92 88.27 126.98 71.58 128.96 69.33 146.04 84.37 164.15 70.2 166 72.56 145.92 88.27"/>
  </g>
  <path d="M294.46,64.29v-15.06h8.55s8.71-1.09,8.71-9.54-7.9-10.19-7.9-10.19h-9.37v-8.63s.49-7.29-6.41-10.08-13.34,3.18-13.37,8.5c-.02,4.46,0,36.66,0,46.89,0,2.66,.44,5.3,1.37,7.79,1.76,4.74,5.61,12.3,13.61,18.87,12.8,10.51,25.28,8.95,28.16,3.55s.52-12.04-7.64-14.18-15.72-9.92-15.72-17.91Z"/>
  <path d="M380.38,46.39v15.06s8.55,0,8.55,0c0,0,8.71,1.09,8.71,9.54,0,8.45-7.9,10.19-7.9,10.19h-9.37s0,8.63,0,8.63c0,0,.49,7.29-6.41,10.08s-13.34-3.18-13.37-8.5c-.02-4.46,0-36.66,0-46.89,0-2.66,.44-5.3,1.37-7.79,1.76-4.74,5.61-12.3,13.61-18.87,12.8-10.51,25.28-8.95,28.16-3.55,2.88,5.4,.52,12.04-7.64,14.18s-15.72,9.92-15.72,17.91Z"/>
  <path d="M474.3,27.14h-.24c-4.9,0-8.88,3.98-8.88,8.88v8.8c-.04,.33-.06,.67-.06,1.01v17.12c-.61,9.12-8.19,16.33-17.46,16.33h0c-9.68,0-17.52-7.84-17.52-17.52v-25.44c0-4.73-3.57-8.86-8.29-9.16-5.17-.33-9.47,3.76-9.47,8.86v28.02c0,18.81,14.67,34.19,33.2,35.33,.01,0,.03,0,.04,0,19.09,4.17,19.5,18.4,19.5,19.41v.06c0,4.99,4.04,9.03,9.03,9.03h0c4.99,0,9.03-4.04,9.03-9.03v-54.81s0-18.21,0-18.21v-9.81c0-4.9-3.98-8.88-8.88-8.88Z"/>
</svg>